<svg id="visual" viewBox="0 0 600 650" width="600" height="650" xmlns="http://www.w3.org/2000/svg" xmlns:xlink="http://www.w3.org/1999/xlink" version="1.1"><path d="M0 170L14.3 167.7C28.7 165.3 57.3 160.7 85.8 153.3C114.3 146 142.7 136 171.2 127.8C199.7 119.7 228.3 113.3 257 113.5C285.7 113.7 314.3 120.3 343 131.3C371.7 142.3 400.3 157.7 428.8 161.8C457.3 166 485.7 159 514.2 156.2C542.7 153.3 571.3 154.7 585.7 155.3L600 156L600 0L585.7 0C571.3 0 542.7 0 514.2 0C485.7 0 457.3 0 428.8 0C400.3 0 371.7 0 343 0C314.3 0 285.7 0 257 0C228.3 0 199.7 0 171.2 0C142.7 0 114.3 0 85.8 0C57.3 0 28.7 0 14.3 0L0 0Z" fill="#3f95ff " stroke-linecap="round" stroke-linejoin="miter"></path></svg>