<svg id="visual" viewBox="0 0 900 100" width="900" height="100" xmlns="http://www.w3.org/2000/svg" xmlns:xlink="http://www.w3.org/1999/xlink" version="1.1"><path d="M0 79L21.5 76.7C43 74.3 86 69.7 128.8 70.8C171.7 72 214.3 79 257.2 81.7C300 84.3 343 82.7 385.8 79C428.7 75.3 471.3 69.7 514.2 66.5C557 63.3 600 62.7 642.8 64.5C685.7 66.3 728.3 70.7 771.2 72.2C814 73.7 857 72.3 878.5 71.7L900 71L900 101L878.5 101C857 101 814 101 771.2 101C728.3 101 685.7 101 642.8 101C600 101 557 101 514.2 101C471.3 101 428.7 101 385.8 101C343 101 300 101 257.2 101C214.3 101 171.7 101 128.8 101C86 101 43 101 21.5 101L0 101Z" fill="#0066FF" stroke-linecap="round" stroke-linejoin="miter"></path></svg>